<svg width="7" height="14" viewBox="0 0 7 14" fill="none" xmlns="http://www.w3.org/2000/svg">
<path fill-rule="evenodd" clip-rule="evenodd" d="M5.992 2.51675L6.30402 0.536737C5.5047 0.48234 4.70246 0.488362 3.90405 0.554743C3.34722 0.628867 2.83823 0.908506 2.47705 1.33874C2.13655 1.80024 1.96779 2.36613 2 2.93875V5.53073L0 5.51574V7.52273L2 7.52975V13.5297L4.013 13.5247V7.52474H6.38702L6.69702 5.51772H4.01404C4.01404 5.51772 4.01404 3.23272 4.01404 3.00872C4.02286 2.93124 4.04774 2.85647 4.08704 2.78912C4.12634 2.72176 4.1792 2.66332 4.24231 2.61752C4.30542 2.57171 4.37739 2.53952 4.45361 2.52303C4.52983 2.50655 4.60866 2.5061 4.68506 2.52172C5.12606 2.51572 5.992 2.51675 5.992 2.51675Z" fill="white"/>
</svg>
