<svg width="19" height="20" viewBox="0 0 19 20" fill="none" xmlns="http://www.w3.org/2000/svg">
<g clip-path="url(#clip0_127_2425)">
<path d="M18.9812 6.08605C18.9367 5.07651 18.7735 4.38246 18.5396 3.78105C18.2983 3.14267 17.9272 2.57114 17.4409 2.09601C16.9658 1.6135 16.3905 1.23856 15.7595 1.00107C15.1546 0.767211 14.4642 0.603956 13.4546 0.559445C12.4375 0.511164 12.1147 0.5 9.53505 0.5C6.95545 0.5 6.63256 0.511164 5.61925 0.555675C4.60971 0.600186 3.91566 0.763586 3.3144 0.997305C2.67588 1.23856 2.10434 1.60973 1.62922 2.09601C1.1467 2.57114 0.77191 3.14644 0.534277 3.77743C0.300414 4.38246 0.137159 5.07274 0.0926477 6.08228C0.0443671 7.09936 0.0332031 7.42225 0.0332031 10.0019C0.0332031 12.5815 0.0443671 12.9043 0.088878 13.9177C0.133389 14.9272 0.296789 15.6213 0.530653 16.2227C0.77191 16.861 1.1467 17.4326 1.62922 17.9077C2.10434 18.3902 2.67965 18.7651 3.31063 19.0026C3.91566 19.2365 4.60594 19.3998 5.61563 19.4443C6.62879 19.4889 6.95182 19.4999 9.53143 19.4999C12.111 19.4999 12.4339 19.4889 13.4472 19.4443C14.4568 19.3998 15.1508 19.2365 15.7521 19.0026C17.029 18.509 18.0385 17.4994 18.5322 16.2227C18.7659 15.6176 18.9293 14.9272 18.9738 13.9177C19.0183 12.9043 19.0295 12.5815 19.0295 10.0019C19.0295 7.42225 19.0257 7.09936 18.9812 6.08605ZM17.2702 13.8434C17.2294 14.7713 17.0735 15.2724 16.9436 15.6065C16.6243 16.4342 15.9674 17.0911 15.1397 17.4104C14.8056 17.5403 14.3009 17.6962 13.3766 17.7369C12.3745 17.7816 12.0739 17.7926 9.53882 17.7926C7.00373 17.7926 6.6994 17.7816 5.70088 17.7369C4.77296 17.6962 4.27189 17.5403 3.93784 17.4104C3.52593 17.2582 3.151 17.0169 2.84667 16.7014C2.53118 16.3933 2.28992 16.0221 2.13769 15.6102C2.00778 15.2762 1.85192 14.7713 1.81118 13.8472C1.76652 12.845 1.7555 12.5443 1.7555 10.0092C1.7555 7.47415 1.76652 7.16983 1.81118 6.17145C1.85192 5.24353 2.00778 4.74246 2.13769 4.40841C2.28992 3.99636 2.53118 3.62157 2.85044 3.31709C3.15839 3.0016 3.52956 2.76034 3.94161 2.60825C4.27566 2.47834 4.7805 2.32248 5.70465 2.2816C6.7068 2.23709 7.0075 2.22592 9.54245 2.22592C12.0813 2.22592 12.3819 2.23709 13.3804 2.2816C14.3083 2.32248 14.8094 2.47834 15.1434 2.60825C15.5553 2.76034 15.9303 3.0016 16.2346 3.31709C16.5501 3.62519 16.7913 3.99636 16.9436 4.40841C17.0735 4.74246 17.2294 5.24716 17.2702 6.17145C17.3148 7.1736 17.3259 7.47415 17.3259 10.0092C17.3259 12.5443 17.3148 12.8413 17.2702 13.8434Z" fill="white"/>
<path d="M9.53513 5.12109C6.84055 5.12109 4.6543 7.3072 4.6543 10.0019C4.6543 12.6967 6.84055 14.8828 9.53513 14.8828C12.2299 14.8828 14.416 12.6967 14.416 10.0019C14.416 7.3072 12.2299 5.12109 9.53513 5.12109ZM9.53513 13.168C7.78703 13.168 6.36906 11.7502 6.36906 10.0019C6.36906 8.25368 7.78703 6.83585 9.53513 6.83585C11.2834 6.83585 12.7012 8.25368 12.7012 10.0019C12.7012 11.7502 11.2834 13.168 9.53513 13.168Z" fill="white"/>
<path d="M15.7488 4.92803C15.7488 5.55727 15.2386 6.06748 14.6092 6.06748C13.9799 6.06748 13.4697 5.55727 13.4697 4.92803C13.4697 4.29864 13.9799 3.78857 14.6092 3.78857C15.2386 3.78857 15.7488 4.29864 15.7488 4.92803Z" fill="white"/>
</g>
<defs>
<clipPath id="clip0_127_2425">
<rect width="19" height="19" fill="white" transform="translate(0 0.5)"/>
</clipPath>
</defs>
</svg>
