<svg width="32" height="36" viewBox="0 0 32 36" fill="none" xmlns="http://www.w3.org/2000/svg">
<path d="M6.83333 31.3334H4.33333C2.49238 31.3334 1 29.841 1 28V4.66671C1 2.82576 2.49238 1.33337 4.33333 1.33337H27.6667C29.5076 1.33337 31 2.82576 31 4.66671V28C31 29.841 29.5076 31.3334 27.6667 31.3334H25.1667M16 29.6667C18.7614 29.6667 21 27.4281 21 24.6667C21 21.9053 18.7614 19.6667 16 19.6667C13.2386 19.6667 11 21.9053 11 24.6667C11 27.4281 13.2386 29.6667 16 29.6667ZM16 29.6667L16.0357 29.6664L10.7145 34.9876L6.00041 30.2736L11.0328 25.2413M16 29.6667L21.3214 34.9876L26.0354 30.2736L21.0031 25.2413M11 8.00004H21M7.66667 13.8334H24.3333" stroke="white" stroke-width="2" stroke-linecap="round" stroke-linejoin="round"/>
</svg>
