<svg width="40" height="40" viewBox="0 0 40 40" fill="none" xmlns="http://www.w3.org/2000/svg">
<path d="M23.75 17.5H30" stroke="white" stroke-width="2" stroke-linecap="round" stroke-linejoin="round"/>
<path d="M23.75 22.5H30" stroke="white" stroke-width="2" stroke-linecap="round" stroke-linejoin="round"/>
<path d="M14.3906 22.5C16.4617 22.5 18.1406 20.8211 18.1406 18.75C18.1406 16.6789 16.4617 15 14.3906 15C12.3196 15 10.6406 16.6789 10.6406 18.75C10.6406 20.8211 12.3196 22.5 14.3906 22.5Z" stroke="white" stroke-width="2" stroke-linecap="round" stroke-linejoin="round"/>
<path d="M9.54785 26.2499C9.82528 25.1766 10.4514 24.2259 11.3279 23.5471C12.2044 22.8684 13.2816 22.5 14.3901 22.5C15.4987 22.5 16.5759 22.8682 17.4524 23.5469C18.329 24.2256 18.9552 25.1763 19.2327 26.2496" stroke="white" stroke-width="2" stroke-linecap="round" stroke-linejoin="round"/>
<path d="M33.75 7.5H6.25C5.55964 7.5 5 8.05964 5 8.75V31.25C5 31.9404 5.55964 32.5 6.25 32.5H33.75C34.4404 32.5 35 31.9404 35 31.25V8.75C35 8.05964 34.4404 7.5 33.75 7.5Z" stroke="white" stroke-width="2" stroke-linecap="round" stroke-linejoin="round"/>
</svg>
