<svg width="15" height="13" viewBox="0 0 15 13" fill="none" xmlns="http://www.w3.org/2000/svg">
<path fill-rule="evenodd" clip-rule="evenodd" d="M12.0044 11.6075C11.9861 11.8065 11.9086 11.9955 11.7818 12.15C11.6551 12.3045 11.485 12.4176 11.2934 12.4745C11.1019 12.5314 10.8977 12.5297 10.7071 12.4694C10.5166 12.4091 10.3484 12.2932 10.2243 12.1364C9.13434 11.2694 7.43443 10.0225 7.43443 10.0225C7.43443 10.0225 6.20435 12.1885 5.98435 12.4105C5.91173 12.4717 5.82722 12.517 5.73606 12.5436C5.6449 12.5702 5.54907 12.5775 5.45493 12.565C5.3608 12.5525 5.27035 12.5204 5.18931 12.4709C5.10827 12.4214 5.03845 12.3555 4.98435 12.2774C4.97256 12.2447 4.96264 12.2113 4.95445 12.1775L5.63438 8.72544L10.5544 3.89246L3.84434 7.72144C3.84434 7.72144 0.814358 6.81546 0.364358 6.63846C0.248273 6.57505 0.152544 6.48003 0.0882347 6.36444C0.0239248 6.24886 -0.00624915 6.11743 0.00107646 5.98536C0.00840206 5.85329 0.0529178 5.726 0.129616 5.61823C0.206315 5.51046 0.312041 5.42662 0.434426 5.37644C1.07443 5.05044 12.3644 0.738445 12.7444 0.627445C13.1244 0.516445 14.1244 0.227443 14.0144 1.20044C13.9044 2.17344 12.1144 11.0735 12.0044 11.6075Z" fill="white"/>
</svg>
