<svg width="36" height="35" viewBox="0 0 36 35" fill="none" xmlns="http://www.w3.org/2000/svg">
<path d="M7.99967 8.00004L15.4997 15.5M7.99967 8.00004H2.99967L1.33301 3.00004L2.99967 1.33337L7.99967 3.00004V8.00004ZM30.098 2.56839L25.7186 6.94776C25.0586 7.60778 24.7286 7.9378 24.6049 8.31835C24.4962 8.65308 24.4962 9.01366 24.6049 9.3484C24.7286 9.72895 25.0586 10.059 25.7186 10.719L26.1141 11.1144C26.7741 11.7745 27.1041 12.1045 27.4846 12.2281C27.8194 12.3369 28.18 12.3369 28.5147 12.2281C28.8953 12.1045 29.2253 11.7745 29.8853 11.1144L33.9818 7.0179C34.423 8.09152 34.6663 9.26736 34.6663 10.5C34.6663 15.5627 30.5623 19.6667 25.4997 19.6667C24.8893 19.6667 24.2929 19.6071 23.7159 19.4933C22.9057 19.3335 22.5006 19.2536 22.255 19.278C21.9939 19.3041 21.8652 19.3432 21.6339 19.467C21.4162 19.5835 21.198 19.8018 20.7614 20.2383L8.83301 32.1667C7.4523 33.5474 5.21372 33.5474 3.83301 32.1667C2.4523 30.786 2.4523 28.5474 3.83301 27.1667L15.7614 15.2383C16.198 14.8018 16.4163 14.5835 16.5327 14.3659C16.6565 14.1345 16.6957 14.0058 16.7217 13.7447C16.7461 13.4991 16.6662 13.094 16.5065 12.2838C16.3927 11.7068 16.333 11.1104 16.333 10.5C16.333 5.43743 20.4371 1.33337 25.4997 1.33337C27.1755 1.33337 28.7463 1.78308 30.098 2.56839ZM17.9998 22.9999L27.1663 32.1665C28.547 33.5472 30.7856 33.5472 32.1663 32.1665C33.547 30.7858 33.547 28.5472 32.1663 27.1665L24.6252 19.6255C24.0914 19.575 23.5709 19.4787 23.0677 19.3406C22.4192 19.1626 21.7079 19.2918 21.2324 19.7673L17.9998 22.9999Z" stroke="white" stroke-width="2" stroke-linecap="round" stroke-linejoin="round"/>
</svg>
