<svg width="18" height="11" viewBox="0 0 18 11" fill="none" xmlns="http://www.w3.org/2000/svg">
<path d="M14.9363 6.521C14.6453 6.1535 14.7285 5.99 14.9363 5.6615C14.94 5.65775 17.3422 2.33825 17.5897 1.2125L17.5912 1.21175C17.7143 0.8015 17.5913 0.5 16.9965 0.5H15.0285C14.5275 0.5 14.2965 0.75875 14.1727 1.04825C14.1727 1.04825 13.1707 3.44675 11.7533 5.0015C11.2957 5.45075 11.0843 5.59475 10.8345 5.59475C10.7115 5.59475 10.5203 5.45075 10.5203 5.0405V1.21175C10.5203 0.71975 10.38 0.5 9.96525 0.5H6.87075C6.5565 0.5 6.36975 0.7295 6.36975 0.94325C6.36975 1.40975 7.0785 1.517 7.152 2.8295V5.67725C7.152 6.30125 7.03875 6.416 6.7875 6.416C6.1185 6.416 4.49475 4.00775 3.5325 1.2515C3.33825 0.71675 3.1485 0.50075 2.64375 0.50075H0.675C0.11325 0.50075 0 0.7595 0 1.049C0 1.5605 0.669 4.10375 3.111 7.46375C4.7385 9.75725 7.0305 11 9.1155 11C10.3688 11 10.5218 10.724 10.5218 10.2493C10.5218 8.05775 10.4085 7.85075 11.0363 7.85075C11.3273 7.85075 11.8282 7.99475 12.9982 9.101C14.3355 10.4128 14.5553 11 15.3038 11H17.2717C17.8328 11 18.117 10.724 17.9535 10.1795C17.5793 9.03425 15.0503 6.6785 14.9363 6.521Z" fill="white"/>
</svg>
