<svg width="15" height="16" viewBox="0 0 15 16" fill="none" xmlns="http://www.w3.org/2000/svg">
<path fill-rule="evenodd" clip-rule="evenodd" d="M7.5 15.472C6.08594 15.4684 4.70209 15.0626 3.51001 14.302L0 15.472L1.17004 11.961C0.288552 10.5543 -0.100415 8.89446 0.0644531 7.24257C0.229321 5.59068 0.938676 4.04044 2.08081 2.83568C3.22294 1.63092 4.73304 0.839992 6.37378 0.587265C8.01452 0.334539 9.6928 0.634372 11.1445 1.43959C12.5963 2.24481 13.7391 3.50974 14.3934 5.03545C15.0478 6.56115 15.1763 8.26106 14.759 9.86784C14.3417 11.4746 13.4022 12.8971 12.0881 13.9116C10.7741 14.9261 9.16009 15.475 7.5 15.472ZM9.13 9.10799C9.62878 9.27105 10.1362 9.40625 10.65 9.51299C10.7041 9.52094 10.7559 9.53972 10.8025 9.56819C10.8491 9.59666 10.8895 9.63426 10.9213 9.6787C10.953 9.72314 10.9755 9.77351 10.9873 9.82683C10.9991 9.88015 11 9.93531 10.99 9.989V10.272C10.9949 10.3748 10.9759 10.4773 10.9342 10.5714C10.8925 10.6655 10.8294 10.7486 10.75 10.814C10.5035 11.0642 10.2117 11.2651 9.89001 11.406C9.41546 11.4627 8.93424 11.4209 8.47656 11.2832C8.01888 11.1456 7.59454 10.9151 7.22998 10.606C6.75956 10.2909 6.3209 9.93087 5.92004 9.53099C5.52083 9.12783 5.15925 8.689 4.83997 8.21999C4.53354 7.8551 4.30533 7.4312 4.16943 6.9745C4.03354 6.51781 3.99295 6.03804 4.05005 5.56499C4.19118 5.24512 4.39131 4.95472 4.64001 4.709C4.70338 4.62795 4.78586 4.56395 4.88013 4.52275C4.9744 4.48155 5.07753 4.46445 5.18005 4.47301H5.46997C5.57935 4.4579 5.69033 4.48678 5.77844 4.55333C5.86655 4.61988 5.92456 4.71865 5.93994 4.82799C6.08994 5.41999 6.19998 5.84799 6.34998 6.32799C6.40998 6.52799 6.34005 6.577 6.18005 6.696C6.08005 6.773 6.00004 6.82899 5.92004 6.88899C5.87368 6.90908 5.83201 6.93871 5.79785 6.97594C5.76369 7.01317 5.73771 7.05717 5.72168 7.10509C5.70564 7.153 5.69996 7.20375 5.70483 7.25404C5.70971 7.30434 5.72506 7.35304 5.75 7.39699C6.00538 7.88851 6.33224 8.33943 6.71997 8.735C7.11498 9.12346 7.56691 9.44954 8.06006 9.70201C8.1042 9.72654 8.15285 9.74164 8.20312 9.74635C8.2534 9.75107 8.30412 9.7453 8.35205 9.72942C8.39998 9.71353 8.44418 9.68788 8.48169 9.65407C8.5192 9.62026 8.54919 9.57904 8.56995 9.53301C8.62995 9.45201 8.68001 9.37699 8.76001 9.27199C8.7726 9.23612 8.79231 9.20316 8.81787 9.17503C8.84344 9.14691 8.87431 9.12418 8.90881 9.10823C8.94332 9.09229 8.98069 9.08344 9.01868 9.0822C9.05667 9.08096 9.09453 9.08734 9.13 9.101V9.10799Z" fill="white"/>
</svg>
